<?xml version="1.0" encoding="UTF-8"?>
<svg xmlns="http://www.w3.org/2000/svg" width="307" height="291" viewBox="0 0 307 291" fill="none">
  <g clip-path="url(#clip0_4123_1216)">
    <g opacity="0.6">
      <path d="M209.036 254.38L209.023 58.1568C209.036 26.0837 235.061 0 267.193 0C299.324 0 325.362 26.0628 325.35 58.1818L325.362 254.38C325.362 286.474 299.312 312.537 267.205 312.537C235.099 312.537 209.023 286.474 209.036 254.38Z" fill="#7EFB69"></path>
    </g>
    <path opacity="0.6" d="M308.323 99.2955C331.052 76.5796 331.052 39.7799 308.311 17.039C285.607 -5.65606 248.762 -5.6769 226.033 17.039L0.529297 242.581V325.9H81.7438L308.323 99.2955Z" fill="#7EFB69"></path>
    <g opacity="0.6">
      <path d="M71.0194 0H267.197C299.337 0 325.367 26.0628 325.354 58.1818C325.367 90.3217 299.337 116.364 267.206 116.364H71.0194C38.8879 116.364 12.8501 90.3217 12.8501 58.1818C12.8376 26.0837 38.9004 0 71.0194 0Z" fill="#7EFB69"></path>
    </g>
  </g>
  <defs>
    <clipPath id="clip0_4123_1216">
      <rect width="325.9" height="325.9" fill="white"></rect>
    </clipPath>
  </defs>
</svg>
