<?xml version="1.0" encoding="UTF-8"?> <svg xmlns="http://www.w3.org/2000/svg" width="226" height="110" viewBox="0 0 226 110" fill="none"><path d="M25.9251 110L0 90H225.5L25.9251 110Z" fill="white"></path><g clip-path="url(#clip0_333_39999)"><path d="M55.7986 58.0877L22.0987 61.7963L18.2053 26.4166L51.9052 22.708C59.149 21.9109 65.387 24.0411 66.0801 30.3396C66.4094 33.3314 64.7855 35.9547 62.5397 36.7864C66.1554 36.8133 70.1533 39.3488 70.6962 44.2823C71.6205 52.6813 64.7223 57.1067 55.7987 58.0887L55.7986 58.0877ZM50.0946 31.3544L31.2491 33.4283L31.7169 37.6792L50.6143 35.5996C52.7138 35.3686 53.8874 34.4435 53.7313 33.0255C53.5753 31.6075 52.1941 31.1233 50.0946 31.3544ZM51.8189 43.6502L32.6066 45.7644L33.3055 52.1149L52.7805 49.9717C56.9276 49.5153 58.4918 48.2802 58.2319 45.9189C58.0066 43.8714 56.2817 43.1591 51.8199 43.6501L51.8189 43.6502Z" fill="#280BC4"></path><path d="M128.135 50.1273L121.581 37.8845L120.006 38.0579L121.416 50.8667L110.497 52.0682L106.604 16.6885L121.616 15.0365C129.543 14.1642 135.056 17.4362 135.818 24.3652C136.315 28.88 134.136 32.7315 130.716 34.4893L140.154 48.8045L128.134 50.1274L128.135 50.1273ZM120.541 23.1235L118.389 23.3604L119.169 30.4473L120.743 30.274C123.735 29.9447 125.131 28.621 124.842 25.9969C124.605 23.8444 123.06 22.8463 120.541 23.1235Z" fill="black"></path><path d="M156.533 47.9587C146.087 49.1082 140.887 41.4448 139.731 30.9473C138.576 20.4498 142.142 11.8206 152.431 10.6884C162.72 9.55612 168.048 16.9385 169.232 27.6998C170.417 38.4611 166.768 46.8313 156.533 47.9577L156.533 47.9587ZM153.35 19.0354C150.568 19.3415 149.987 22.7521 150.756 29.7341C151.524 36.7161 152.885 39.913 155.614 39.6127C158.343 39.3123 158.978 35.8958 158.209 28.9138C157.441 21.9318 156.08 18.735 153.35 19.0354Z" fill="black"></path><path d="M47.7739 101.481C39.9035 102.347 32.9555 102.368 26.4089 100.963L27.9967 92.3413C33.2554 93.568 39.3982 94.0611 46.8668 93.2392C55.4387 92.2959 58.3752 90.8572 58.1673 88.9675C57.9593 87.0779 55.2501 86.8966 46.7042 87.1473C31.9963 87.6503 24.8067 85.9444 23.9229 77.9132C23.0391 69.8819 32.1436 65.4797 46.0786 63.9462C53.1965 63.1629 61.0411 62.9904 66.2798 64.4862L64.8036 73.2019C59.9782 71.7678 53.6586 71.5065 46.9914 72.2402C38.8712 73.1338 35.6875 74.174 35.8667 75.8018C36.0458 77.4296 38.3205 77.8165 46.2102 77.5854C61.2188 77.0493 68.8167 77.8607 69.7467 86.3117C70.775 95.656 61.0574 100.019 47.7739 101.481Z" fill="black"></path><path d="M86.7606 69.404L89.6778 95.913L79.2513 97.0604L76.334 70.5514L69.7178 71.2795L68.7415 62.4079L92.4015 59.8041L93.3778 68.6758L86.7606 69.404Z" fill="black"></path><path d="M112.751 81.9818L111.283 78.3263L104.717 79.0489L104.08 82.936L93.5535 84.0944L100.093 58.6929L111.673 57.4186L123.58 80.7901L112.753 81.9816L112.751 81.9818ZM106.429 64.6475L105.265 73.4271L109.526 72.9582L106.429 64.6475Z" fill="black"></path><path d="M136.735 54.6605L136.289 60.2884L129.723 61.011L128.064 55.6147L117.538 56.7731L130.683 91.4006L142.263 90.1263L147.564 53.4688L136.737 54.6603L136.735 54.6605ZM135.239 81.1768L131.759 68.9154L136.02 68.4465L135.239 81.1768Z" fill="black"></path><path d="M154.895 88.736L151.002 53.3564L161.428 52.2089L164.345 78.718L174.722 77.576L175.698 86.4477L154.896 88.7369L154.895 88.736Z" fill="black"></path><path d="M123.84 83.1745L93.8138 86.4788L94.7901 95.3505L124.817 92.0461L123.84 83.1745Z" fill="#280BC4"></path><path d="M104.202 42.7726C104.855 48.7043 101.613 54.0017 91.1143 55.1571C80.6159 56.3124 76.3512 51.8401 75.6985 45.9093L72.8911 20.3986L83.8093 19.197L86.5013 43.6585C86.7208 45.6531 87.95 47.1644 90.2064 46.9161C92.6737 46.6445 93.3985 45.0244 93.1675 42.9249L90.4756 18.4634L101.394 17.2619L104.201 42.7737L104.202 42.7726Z" fill="black"></path></g><defs><clipPath id="clip0_333_39999"><rect width="149.98" height="78.7998" fill="white" transform="translate(18.1013 25.4709) rotate(-6.28)"></rect></clipPath></defs></svg> 